<?xml version="1.0" encoding="utf-8"?>
<!-- Generator: Adobe Illustrator 24.1.3, SVG Export Plug-In . SVG Version: 6.00 Build 0)  -->
<svg version="1.1" id="Capa_1" xmlns="http://www.w3.org/2000/svg" xmlns:xlink="http://www.w3.org/1999/xlink" x="0px" y="0px"
	 viewBox="0 0 76.8 17.6" style="enable-background:new 0 0 76.8 17.6;" xml:space="preserve">
<style type="text/css">
	.st0{fill:#FFFFFF;}
	.st1{fill:#D90D81;}
</style>
<path class="st0" d="M27.7,7.1v6.3c0,0.6-0.1,0.7-0.7,0.7c-1,0-1.9,0-2.9,0c-0.3,0-0.5-0.1-0.7-0.4c-1.7-2.7-3.2-5.6-4.7-8.3
	c-0.1-0.1-0.1-0.4-0.3-0.4c-0.2,0.1-0.1,0.3-0.1,0.5v7.7c0,0.8-0.1,0.9-0.8,0.9h-1.6c-0.4,0-0.6-0.2-0.6-0.6c0-0.2,0-0.4,0-0.6V0.8
	c0-0.7,0.1-0.8,0.8-0.8h3c0.3,0,0.5,0.1,0.7,0.4c0.8,1.5,1.7,3.1,2.6,4.5c0.7,1.2,1.4,2.4,2.1,3.6c0.1,0.1,0.1,0.3,0.2,0.3
	c0.2,0,0.1-0.3,0.1-0.4V1c0-0.9,0-1,1-1c0.5,0,1,0,1.4,0c0.5,0,0.7,0.2,0.7,0.7C27.7,2.8,27.7,5,27.7,7.1L27.7,7.1z"/>
<path class="st0" d="M48.5,13.1c-0.7,0.6-1.4,1-2.2,1.2c-2.3,0.4-4.3-0.6-5.1-2.9c-0.6-1.9-0.6-3.7,0.3-5.5c1.1-2.1,2.4-2.4,4.6-2.3
	c0.9,0,1.7,0.3,2.3,0.9c0.2-0.1,0.1-0.2,0.1-0.3c0-0.4,0.2-0.5,0.6-0.5h1.7c0.7,0,0.8,0.2,0.8,0.8v12.4c0,0.6-0.2,0.7-0.7,0.7
	c-0.6,0-1.1,0-1.7,0c-0.5,0-0.7-0.2-0.7-0.7C48.5,15.7,48.4,14.4,48.5,13.1L48.5,13.1z M44,8.8c0,0.7,0.1,1.3,0.3,1.9
	c0.4,0.9,1,1.3,2,1.4c0.9,0,1.7-0.4,2-1.3c0.5-1.3,0.5-2.6-0.1-3.8c-0.4-0.8-1-1.3-2-1.2c-0.9,0-1.5,0.5-1.9,1.3
	C44.1,7.6,44,8.3,44,8.8L44,8.8z"/>
<path class="st0" d="M35.9,9.5h-3.3c-0.2,0-0.4,0-0.4,0.3c0.2,2.2,2.6,2.9,4.1,1.9c0.3-0.2,0.5-0.5,0.7-0.8c0.1-0.3,0.3-0.4,0.7-0.4
	c0.4,0,0.9,0,1.3,0c0.6,0,0.7,0.2,0.5,0.8c-0.4,1.2-1.2,2.2-2.4,2.7c-1.6,0.6-3.2,0.7-4.8,0.1c-2.2-0.8-3.3-2.9-3.2-5.4
	c0.1-0.9,0.2-1.8,0.6-2.6c0.8-1.4,1.8-2.4,3.5-2.5c1.5-0.1,3-0.3,4.3,0.7c1.6,1.1,2.1,2.8,2.2,4.7c0,0.4-0.3,0.5-0.7,0.5L35.9,9.5
	L35.9,9.5z M32.3,7.6h4.1c0.3,0,0.2-0.2,0.2-0.4c-0.2-1-1-1.6-2.2-1.5C33.5,5.7,32.4,6.4,32.3,7.6L32.3,7.6z"/>
<path class="st0" d="M52.9,7.2V4.4c0-0.5,0.2-0.7,0.7-0.7c0.6,0,1.2,0,1.8,0c0.6,0,0.7,0.1,0.7,0.7v4.9c0,0.4,0,0.9,0.2,1.3
	c0.2,0.8,0.7,1.1,1.6,1.1c0.8,0,1.3-0.4,1.6-1.1c0.1-0.4,0.1-0.8,0.1-1.1v-5c0-0.6,0.1-0.8,0.8-0.8h1.7c0.4,0,0.6,0.2,0.6,0.6
	c0,2.2,0.1,4.3-0.1,6.5c-0.2,2-1.6,3.4-3.8,3.6c-1.1,0.1-2.1,0.1-3.2-0.2c-1.9-0.7-2.8-2-2.8-4.2L52.9,7.2L52.9,7.2z"/>
<path class="st0" d="M64,8.9c0-1.5,0-3,0-4.6c0-0.5,0.2-0.7,0.7-0.7c0.6,0,1.3,0,1.9,0c0.4,0,0.6,0.2,0.6,0.6v9.3
	c0,0.4-0.2,0.6-0.6,0.6c-0.6,0-1.3,0-1.9,0c-0.5,0-0.7-0.2-0.7-0.7C64,11.9,64,10.4,64,8.9z"/>
<path class="st1" d="M9.7,1.5c0-1.3,0-1.3,1.3-1.2c0.5,0,1.1-0.2,1.6,0c0.2,0.1,0.3,0.1,0.3,0.3v1.9c0,0.2-0.1,0.3-0.3,0.3
	c-0.8,0-1.6,0.1-2.4,0C9.7,2.8,9.6,2.6,9.7,2.3C9.7,2,9.7,1.8,9.7,1.5z"/>
</svg>
